{
  "source": "C:\\Users\\Peter\\Desktop\\stuff\\MIUN\\quantitative_research\\video_compression\\videos\\UVG\\YachtRide_1920x1080_120fps_420_8bit_YUV.y4m",
  "output": "C:\\Users\\Peter\\Desktop\\stuff\\MIUN\\quantitative_research\\video_compression\\compressed_videos\\UVG\\vp9\\3\\YachtRide_1920x1080_120fps_420_8bit_YUV_vp9.webm",
  "codec": "vp9",
  "ok": "[yuv4mpegpipe @ 00000258ace15280] Stream #0: not enough frames to estimate rate; consider increasing probesize\nInput #0, yuv4mpegpipe, from 'C:\\Users\\Peter\\Desktop\\stuff\\MIUN\\quantitative_research\\video_compression\\videos\\UVG\\YachtRide_1920x1080_120fps_420_8bit_YUV.y4m':\n  Duration: 00:00:05.00, start: 0.000000, bitrate: 2985989 kb/s\n  Stream #0:0: Video: rawvideo (I420 / 0x30323449), yuv420p(progressive), 1920x1080, 120 fps, 120 tbr, 120 tbn\n[out#0/webm @ 00000258ace18e00] Codec AVOption b:a (set bitrate (in bits/s)) has not been used for any stream. The most likely reason is either wrong type (e.g. a video option with no video streams) or that it is a private option of some decoder which was not actually used for any stream.\nStream mapping:\n  Stream #0:0 -> #0:0 (rawvideo (native) -> vp9 (libvpx-vp9))\nPress [q] to stop, [?] for help\n[libvpx-vp9 @ 00000258ace1bf80] v1.15.2-100-g40561f514\nOutput #0, webm, to 'C:\\Users\\Peter\\Desktop\\stuff\\MIUN\\quantitative_research\\video_compression\\compressed_videos\\UVG\\vp9\\3\\YachtRide_1920x1080_120fps_420_8bit_YUV_vp9.webm':\n  Metadata:\n    encoder         : Lavf62.3.100\n  Stream #0:0: Video: vp9, yuv420p(tv, progressive), 1920x1080, q=2-31, 3000 kb/s, 120 fps, 1k tbn\n    Metadata:\n      encoder         : Lavc62.11.100 libvpx-vp9\n    Side data:\n      cpb: bitrate max/min/avg: 0/0/0 buffer size: 3000000 vbv_delay: N/A\nframe=    1 fps=0.0 q=39.0 size=       0KiB time=00:00:00.00 bitrate= 461.8kbits/s speed=0.0163x elapsed=0:00:00.51    \nframe=    6 fps=5.9 q=62.0 size=       0KiB time=00:00:00.05 bitrate=  77.0kbits/s speed=0.0488x elapsed=0:00:01.02    \nframe=   10 fps=6.5 q=60.0 size=       0KiB time=00:00:00.08 bitrate=  46.2kbits/s speed=0.0542x elapsed=0:00:01.53    \nframe=   14 fps=6.8 q=60.0 size=       0KiB time=00:00:00.11 bitrate=  33.0kbits/s speed=0.0568x elapsed=0:00:02.05    \nframe=   18 fps=7.0 q=57.0 size=       0KiB time=00:00:00.15 bitrate=  25.7kbits/s speed=0.0583x elapsed=0:00:02.57    \nframe=   21 fps=6.8 q=59.0 size=       0KiB time=00:00:00.17 bitrate=  22.0kbits/s speed=0.0568x elapsed=0:00:03.08    \nframe=   24 fps=6.7 q=60.0 size=       0KiB time=00:00:00.20 bitrate=  19.2kbits/s speed=0.0555x elapsed=0:00:03.60    \nframe=   28 fps=6.8 q=60.0 size=       0KiB time=00:00:00.23 bitrate=  16.5kbits/s speed=0.0567x elapsed=0:00:04.11    \nframe=   31 fps=6.7 q=48.0 size=       0KiB time=00:00:00.25 bitrate=  14.9kbits/s speed=0.0558x elapsed=0:00:04.63    \nframe=   35 fps=6.8 q=59.0 size=       0KiB time=00:00:00.29 bitrate=  13.2kbits/s speed=0.0566x elapsed=0:00:05.14    \nframe=   38 fps=6.7 q=61.0 size=       0KiB time=00:00:00.31 bitrate=  12.2kbits/s speed=0.0559x elapsed=0:00:05.66    \nframe=   41 fps=6.6 q=60.0 size=       0KiB time=00:00:00.34 bitrate=  11.3kbits/s speed=0.0553x elapsed=0:00:06.17    \nframe=   45 fps=6.7 q=59.0 size=       0KiB time=00:00:00.37 bitrate=  10.3kbits/s speed=0.0559x elapsed=0:00:06.70    \nframe=   48 fps=6.7 q=57.0 size=       0KiB time=00:00:00.40 bitrate=   9.6kbits/s speed=0.0555x elapsed=0:00:07.21    \nframe=   51 fps=6.6 q=61.0 size=       0KiB time=00:00:00.42 bitrate=   9.1kbits/s speed=0.055x elapsed=0:00:07.72    \nframe=   54 fps=6.5 q=62.0 size=       0KiB time=00:00:00.45 bitrate=   8.6kbits/s speed=0.0546x elapsed=0:00:08.24    \nframe=   58 fps=6.6 q=61.0 size=       0KiB time=00:00:00.48 bitrate=   8.0kbits/s speed=0.0552x elapsed=0:00:08.75    \nframe=   61 fps=6.6 q=62.0 size=       0KiB time=00:00:00.50 bitrate=   7.6kbits/s speed=0.0548x elapsed=0:00:09.27    \nframe=   64 fps=6.5 q=59.0 size=       0KiB time=00:00:00.53 bitrate=   7.2kbits/s speed=0.0545x elapsed=0:00:09.79    \nframe=   66 fps=6.4 q=60.0 size=       0KiB time=00:00:00.55 bitrate=   7.0kbits/s speed=0.0534x elapsed=0:00:10.30    \nframe=   70 fps=6.5 q=60.0 size=       0KiB time=00:00:00.58 bitrate=   6.6kbits/s speed=0.0539x elapsed=0:00:10.82    \nframe=   73 fps=6.4 q=60.0 size=       0KiB time=00:00:00.60 bitrate=   6.3kbits/s speed=0.0536x elapsed=0:00:11.34    \nframe=   76 fps=6.4 q=57.0 size=       0KiB time=00:00:00.63 bitrate=   6.1kbits/s speed=0.0534x elapsed=0:00:11.85    \nframe=   79 fps=6.4 q=58.0 size=       0KiB time=00:00:00.65 bitrate=   5.8kbits/s speed=0.0532x elapsed=0:00:12.36    \nframe=   82 fps=6.4 q=59.0 size=       0KiB time=00:00:00.68 bitrate=   5.6kbits/s speed=0.053x elapsed=0:00:12.88    \nframe=   85 fps=6.3 q=59.0 size=       0KiB time=00:00:00.70 bitrate=   5.4kbits/s speed=0.0529x elapsed=0:00:13.40    \nframe=   88 fps=6.3 q=59.0 size=       0KiB time=00:00:00.73 bitrate=   5.2kbits/s speed=0.0527x elapsed=0:00:13.91    \nframe=   91 fps=6.3 q=58.0 size=       0KiB time=00:00:00.75 bitrate=   5.1kbits/s speed=0.0526x elapsed=0:00:14.42    \nframe=   95 fps=6.4 q=59.0 size=       0KiB time=00:00:00.79 bitrate=   4.9kbits/s speed=0.053x elapsed=0:00:14.94    \nframe=   98 fps=6.3 q=59.0 size=       0KiB time=00:00:00.81 bitrate=   4.7kbits/s speed=0.0528x elapsed=0:00:15.45    \nframe=  101 fps=6.3 q=59.0 size=       0KiB time=00:00:00.84 bitrate=   4.6kbits/s speed=0.0527x elapsed=0:00:15.97    \nframe=  104 fps=6.3 q=48.0 size=       0KiB time=00:00:00.86 bitrate=   4.4kbits/s speed=0.0525x elapsed=0:00:16.50    \nframe=  108 fps=6.3 q=59.0 size=       0KiB time=00:00:00.90 bitrate=   4.3kbits/s speed=0.0529x elapsed=0:00:17.02    \nframe=  111 fps=6.3 q=60.0 size=       0KiB time=00:00:00.92 bitrate=   4.2kbits/s speed=0.0527x elapsed=0:00:17.53    \nframe=  114 fps=6.3 q=60.0 size=       0KiB time=00:00:00.95 bitrate=   4.1kbits/s speed=0.0526x elapsed=0:00:18.05    \nframe=  117 fps=6.3 q=59.0 size=       0KiB time=00:00:00.97 bitrate=   3.9kbits/s speed=0.0525x elapsed=0:00:18.57    \nframe=  120 fps=6.3 q=59.0 size=       0KiB time=00:00:01.00 bitrate=   3.8kbits/s speed=0.0524x elapsed=0:00:19.08    \nframe=  124 fps=6.3 q=59.0 size=       0KiB time=00:00:01.03 bitrate=   3.7kbits/s speed=0.0527x elapsed=0:00:19.61    \nframe=  127 fps=6.3 q=59.0 size=       0KiB time=00:00:01.05 bitrate=   3.6kbits/s speed=0.0526x elapsed=0:00:20.13    \nframe=  130 fps=6.3 q=59.0 size=     256KiB time=00:00:01.08 bitrate=1935.8kbits/s speed=0.0525x elapsed=0:00:20.64    \nframe=  134 fps=6.3 q=59.0 size=     256KiB time=00:00:01.11 bitrate=1878.0kbits/s speed=0.0528x elapsed=0:00:21.15    \nframe=  137 fps=6.3 q=59.0 size=     256KiB time=00:00:01.14 bitrate=1836.9kbits/s speed=0.0527x elapsed=0:00:21.68    \nframe=  141 fps=6.4 q=59.0 size=     256KiB time=00:00:01.17 bitrate=1784.8kbits/s speed=0.0529x elapsed=0:00:22.19    \nframe=  144 fps=6.3 q=46.0 size=     256KiB time=00:00:01.20 bitrate=1747.6kbits/s speed=0.0528x elapsed=0:00:22.70    \nframe=  148 fps=6.4 q=59.0 size=     256KiB time=00:00:01.23 bitrate=1700.4kbits/s speed=0.0531x elapsed=0:00:23.22    \nframe=  151 fps=6.4 q=60.0 size=     256KiB time=00:00:01.25 bitrate=1666.6kbits/s speed=0.053x elapsed=0:00:23.74    \nframe=  154 fps=6.3 q=60.0 size=     256KiB time=00:00:01.28 bitrate=1634.1kbits/s speed=0.0529x elapsed=0:00:24.25    \nframe=  157 fps=6.3 q=60.0 size=     256KiB time=00:00:01.30 bitrate=1602.9kbits/s speed=0.0528x elapsed=0:00:24.77    \nframe=  160 fps=6.3 q=60.0 size=     256KiB time=00:00:01.33 bitrate=1572.9kbits/s speed=0.0527x elapsed=0:00:25.28    \nframe=  163 fps=6.3 q=59.0 size=     256KiB time=00:00:01.35 bitrate=1543.9kbits/s speed=0.0526x elapsed=0:00:25.80    \nframe=  166 fps=6.3 q=60.0 size=     256KiB time=00:00:01.38 bitrate=1516.0kbits/s speed=0.0526x elapsed=0:00:26.32    \nframe=  170 fps=6.3 q=60.0 size=     256KiB time=00:00:01.41 bitrate=1480.3kbits/s speed=0.0528x elapsed=0:00:26.83    \nframe=  173 fps=6.3 q=60.0 size=     256KiB time=00:00:01.44 bitrate=1454.7kbits/s speed=0.0527x elapsed=0:00:27.35    \nframe=  176 fps=6.3 q=57.0 size=     256KiB time=00:00:01.46 bitrate=1429.9kbits/s speed=0.0526x elapsed=0:00:27.87    \nframe=  179 fps=6.3 q=59.0 size=     256KiB time=00:00:01.49 bitrate=1405.9kbits/s speed=0.0525x elapsed=0:00:28.39    \nframe=  182 fps=6.3 q=59.0 size=     256KiB time=00:00:01.51 bitrate=1382.7kbits/s speed=0.0524x elapsed=0:00:28.92    \nframe=  186 fps=6.3 q=59.0 size=     256KiB time=00:00:01.55 bitrate=1353.0kbits/s speed=0.0527x elapsed=0:00:29.42    \nframe=  188 fps=6.3 q=59.0 size=     256KiB time=00:00:01.56 bitrate=1338.6kbits/s speed=0.0523x elapsed=0:00:29.94    \nframe=  192 fps=6.3 q=59.0 size=     256KiB time=00:00:01.60 bitrate=1310.7kbits/s speed=0.0525x elapsed=0:00:30.46    \nframe=  195 fps=6.3 q=59.0 size=     256KiB time=00:00:01.62 bitrate=1290.6kbits/s speed=0.0525x elapsed=0:00:30.97    \nframe=  198 fps=6.3 q=60.0 size=     256KiB time=00:00:01.65 bitrate=1271.0kbits/s speed=0.0524x elapsed=0:00:31.50    \nframe=  201 fps=6.3 q=59.0 size=     256KiB time=00:00:01.67 bitrate=1252.0kbits/s speed=0.0523x elapsed=0:00:32.02    \nframe=  204 fps=6.3 q=52.0 size=     256KiB time=00:00:01.70 bitrate=1233.6kbits/s speed=0.0522x elapsed=0:00:32.53    \nframe=  208 fps=6.3 q=60.0 size=     256KiB time=00:00:01.73 bitrate=1209.9kbits/s speed=0.0524x elapsed=0:00:33.05    \nframe=  211 fps=6.3 q=52.0 size=     256KiB time=00:00:01.75 bitrate=1192.7kbits/s speed=0.0524x elapsed=0:00:33.56    \nframe=  215 fps=6.3 q=59.0 size=     256KiB time=00:00:01.79 bitrate=1170.5kbits/s speed=0.0526x elapsed=0:00:34.08    \nframe=  217 fps=6.3 q=59.0 size=     256KiB time=00:00:01.80 bitrate=1159.7kbits/s speed=0.0523x elapsed=0:00:34.60    \nframe=  221 fps=6.3 q=62.0 size=     256KiB time=00:00:01.84 bitrate=1138.7kbits/s speed=0.0524x elapsed=0:00:35.12    \nframe=  224 fps=6.3 q=60.0 size=     256KiB time=00:00:01.86 bitrate=1123.5kbits/s speed=0.0524x elapsed=0:00:35.64    \nframe=  228 fps=6.3 q=61.0 size=     256KiB time=00:00:01.90 bitrate=1103.8kbits/s speed=0.0526x elapsed=0:00:36.15    \nframe=  231 fps=6.3 q=60.0 size=     256KiB time=00:00:01.92 bitrate=1089.4kbits/s speed=0.0525x elapsed=0:00:36.66    \nframe=  235 fps=6.3 q=62.0 size=     256KiB time=00:00:01.95 bitrate=1070.9kbits/s speed=0.0527x elapsed=0:00:37.17    \nframe=  238 fps=6.3 q=60.0 size=     256KiB time=00:00:01.98 bitrate=1057.4kbits/s speed=0.0526x elapsed=0:00:37.69    \nframe=  242 fps=6.3 q=61.0 size=     256KiB time=00:00:02.01 bitrate=1039.9kbits/s speed=0.0528x elapsed=0:00:38.21    \nframe=  245 fps=6.3 q=61.0 size=     256KiB time=00:00:02.04 bitrate=1027.2kbits/s speed=0.0527x elapsed=0:00:38.72    \nframe=  247 fps=6.3 q=60.0 size=     256KiB time=00:00:02.05 bitrate=1018.9kbits/s speed=0.0525x elapsed=0:00:39.23    \nframe=  251 fps=6.3 q=60.0 size=     256KiB time=00:00:02.09 bitrate=1002.6kbits/s speed=0.0526x elapsed=0:00:39.75    \nframe=  254 fps=6.3 q=60.0 size=     256KiB time=00:00:02.11 bitrate= 990.8kbits/s speed=0.0526x elapsed=0:00:40.27    \nframe=  257 fps=6.3 q=49.0 size=     256KiB time=00:00:02.14 bitrate= 979.2kbits/s speed=0.0525x elapsed=0:00:40.79    \nframe=  261 fps=6.3 q=60.0 size=     768KiB time=00:00:02.17 bitrate=2892.6kbits/s speed=0.0527x elapsed=0:00:41.30    \nframe=  265 fps=6.3 q=61.0 size=     768KiB time=00:00:02.20 bitrate=2849.0kbits/s speed=0.0528x elapsed=0:00:41.82    \nframe=  268 fps=6.3 q=60.0 size=     768KiB time=00:00:02.23 bitrate=2817.1kbits/s speed=0.0527x elapsed=0:00:42.33    \nframe=  271 fps=6.3 q=51.0 size=     768KiB time=00:00:02.25 bitrate=2785.9kbits/s speed=0.0527x elapsed=0:00:42.85    \nframe=  275 fps=6.3 q=60.0 size=     768KiB time=00:00:02.29 bitrate=2745.4kbits/s speed=0.0528x elapsed=0:00:43.37    \nframe=  278 fps=6.3 q=51.0 size=     768KiB time=00:00:02.31 bitrate=2715.7kbits/s speed=0.0528x elapsed=0:00:43.88    \nframe=  281 fps=6.3 q=61.0 size=     768KiB time=00:00:02.34 bitrate=2686.7kbits/s speed=0.0527x elapsed=0:00:44.40    \nframe=  284 fps=6.3 q=60.0 size=     768KiB time=00:00:02.36 bitrate=2658.4kbits/s speed=0.0527x elapsed=0:00:44.90    \nframe=  288 fps=6.3 q=61.0 size=     768KiB time=00:00:02.40 bitrate=2621.4kbits/s speed=0.0528x elapsed=0:00:45.42    \nframe=  291 fps=6.3 q=61.0 size=     768KiB time=00:00:02.42 bitrate=2594.4kbits/s speed=0.0528x elapsed=0:00:45.94    \nframe=  294 fps=6.3 q=59.0 size=     768KiB time=00:00:02.45 bitrate=2567.9kbits/s speed=0.0527x elapsed=0:00:46.45    \nframe=  298 fps=6.3 q=61.0 size=     768KiB time=00:00:02.48 bitrate=2533.5kbits/s speed=0.0529x elapsed=0:00:46.97    \nframe=  300 fps=6.3 q=61.0 size=     768KiB time=00:00:02.50 bitrate=2516.6kbits/s speed=0.0526x elapsed=0:00:47.49    \nframe=  304 fps=6.3 q=61.0 size=     768KiB time=00:00:02.53 bitrate=2483.5kbits/s speed=0.0528x elapsed=0:00:48.01    \nframe=  307 fps=6.3 q=61.0 size=     768KiB time=00:00:02.55 bitrate=2459.2kbits/s speed=0.0527x elapsed=0:00:48.52    \nframe=  310 fps=6.3 q=60.0 size=     768KiB time=00:00:02.58 bitrate=2435.4kbits/s speed=0.0527x elapsed=0:00:49.04    \nframe=  313 fps=6.3 q=51.0 size=     768KiB time=00:00:02.60 bitrate=2412.1kbits/s speed=0.0526x elapsed=0:00:49.55    \nframe=  316 fps=6.3 q=61.0 size=     768KiB time=00:00:02.63 bitrate=2389.2kbits/s speed=0.0526x elapsed=0:00:50.08    \nframe=  319 fps=6.3 q=61.0 size=     768KiB time=00:00:02.65 bitrate=2366.7kbits/s speed=0.0525x elapsed=0:00:50.58    \nframe=  323 fps=6.3 q=61.0 size=     768KiB time=00:00:02.69 bitrate=2337.4kbits/s speed=0.0527x elapsed=0:00:51.10    \nframe=  326 fps=6.3 q=61.0 size=     768KiB time=00:00:02.71 bitrate=2315.9kbits/s speed=0.0526x elapsed=0:00:51.62    \nframe=  329 fps=6.3 q=59.0 size=     768KiB time=00:00:02.74 bitrate=2294.8kbits/s speed=0.0526x elapsed=0:00:52.12    \nframe=  333 fps=6.3 q=61.0 size=     768KiB time=00:00:02.77 bitrate=2267.2kbits/s speed=0.0527x elapsed=0:00:52.64    \nframe=  336 fps=6.3 q=59.0 size=     768KiB time=00:00:02.80 bitrate=2246.9kbits/s speed=0.0527x elapsed=0:00:53.16    \nframe=  339 fps=6.3 q=61.0 size=     768KiB time=00:00:02.82 bitrate=2227.1kbits/s speed=0.0526x elapsed=0:00:53.68    \nframe=  342 fps=6.3 q=61.0 size=     768KiB time=00:00:02.85 bitrate=2207.5kbits/s speed=0.0526x elapsed=0:00:54.20    \nframe=  345 fps=6.3 q=60.0 size=     768KiB time=00:00:02.87 bitrate=2188.3kbits/s speed=0.0526x elapsed=0:00:54.70    \nframe=  348 fps=6.3 q=51.0 size=     768KiB time=00:00:02.90 bitrate=2169.5kbits/s speed=0.0525x elapsed=0:00:55.22    \nframe=  352 fps=6.3 q=60.0 size=     768KiB time=00:00:02.93 bitrate=2144.8kbits/s speed=0.0526x elapsed=0:00:55.74    \nframe=  354 fps=6.3 q=61.0 size=     768KiB time=00:00:02.95 bitrate=2132.7kbits/s speed=0.0524x elapsed=0:00:56.25    \nframe=  358 fps=6.3 q=59.0 size=     768KiB time=00:00:02.98 bitrate=2108.9kbits/s speed=0.0525x elapsed=0:00:56.77    \nframe=  361 fps=6.3 q=60.0 size=     768KiB time=00:00:03.00 bitrate=2091.3kbits/s speed=0.0525x elapsed=0:00:57.28    \nframe=  364 fps=6.3 q=60.0 size=     768KiB time=00:00:03.03 bitrate=2074.1kbits/s speed=0.0525x elapsed=0:00:57.80    \nframe=  367 fps=6.3 q=60.0 size=     768KiB time=00:00:03.05 bitrate=2057.2kbits/s speed=0.0524x elapsed=0:00:58.33    \nframe=  371 fps=6.3 q=63.0 size=     768KiB time=00:00:03.09 bitrate=2035.0kbits/s speed=0.0525x elapsed=0:00:58.86    \nframe=  374 fps=6.3 q=60.0 size=     768KiB time=00:00:03.11 bitrate=2018.6kbits/s speed=0.0525x elapsed=0:00:59.39    \nframe=  377 fps=6.3 q=51.0 size=     768KiB time=00:00:03.14 bitrate=2002.6kbits/s speed=0.0524x elapsed=0:00:59.90    \nframe=  380 fps=6.3 q=61.0 size=     768KiB time=00:00:03.16 bitrate=1986.8kbits/s speed=0.0524x elapsed=0:01:00.41    \nframe=  384 fps=6.3 q=61.0 size=     768KiB time=00:00:03.20 bitrate=1966.1kbits/s speed=0.0525x elapsed=0:01:00.92    \nframe=  387 fps=6.3 q=59.0 size=    1024KiB time=00:00:03.22 bitrate=2601.1kbits/s speed=0.0525x elapsed=0:01:01.45    \nframe=  390 fps=6.3 q=62.0 size=    1024KiB time=00:00:03.25 bitrate=2581.1kbits/s speed=0.0525x elapsed=0:01:01.95    \nframe=  393 fps=6.3 q=62.0 size=    1024KiB time=00:00:03.27 bitrate=2561.4kbits/s speed=0.0524x elapsed=0:01:02.47    \nframe=  397 fps=6.3 q=62.0 size=    1024KiB time=00:00:03.30 bitrate=2535.6kbits/s speed=0.0525x elapsed=0:01:02.99    \nframe=  399 fps=6.3 q=52.0 size=    1024KiB time=00:00:03.32 bitrate=2522.9kbits/s speed=0.0524x elapsed=0:01:03.50    \nframe=  403 fps=6.3 q=59.0 size=    1024KiB time=00:00:03.35 bitrate=2497.8kbits/s speed=0.0525x elapsed=0:01:04.02    \nframe=  405 fps=6.3 q=59.0 size=    1024KiB time=00:00:03.37 bitrate=2485.5kbits/s speed=0.0523x elapsed=0:01:04.54    \nframe=  409 fps=6.3 q=61.0 size=    1024KiB time=00:00:03.40 bitrate=2461.2kbits/s speed=0.0524x elapsed=0:01:05.05    \nframe=  412 fps=6.3 q=60.0 size=    1024KiB time=00:00:03.43 bitrate=2443.3kbits/s speed=0.0524x elapsed=0:01:05.56    \nframe=  415 fps=6.3 q=58.0 size=    1024KiB time=00:00:03.45 bitrate=2425.6kbits/s speed=0.0523x elapsed=0:01:06.08    \nframe=  418 fps=6.3 q=62.0 size=    1024KiB time=00:00:03.48 bitrate=2408.2kbits/s speed=0.0523x elapsed=0:01:06.60    \nframe=  421 fps=6.3 q=62.0 size=    1024KiB time=00:00:03.50 bitrate=2391.1kbits/s speed=0.0523x elapsed=0:01:07.12    \nframe=  425 fps=6.3 q=62.0 size=    1024KiB time=00:00:03.54 bitrate=2368.5kbits/s speed=0.0524x elapsed=0:01:07.63    \nframe=  427 fps=6.3 q=49.0 size=    1024KiB time=00:00:03.55 bitrate=2357.5kbits/s speed=0.0522x elapsed=0:01:08.14    \nframe=  430 fps=6.3 q=60.0 size=    1024KiB time=00:00:03.58 bitrate=2341.0kbits/s speed=0.0522x elapsed=0:01:08.67    \nframe=  433 fps=6.3 q=59.0 size=    1024KiB time=00:00:03.60 bitrate=2324.8kbits/s speed=0.0522x elapsed=0:01:09.18    \nframe=  436 fps=6.3 q=60.0 size=    1024KiB time=00:00:03.63 bitrate=2308.8kbits/s speed=0.0521x elapsed=0:01:09.69    \nframe=  439 fps=6.3 q=60.0 size=    1024KiB time=00:00:03.65 bitrate=2293.0kbits/s speed=0.0521x elapsed=0:01:10.20    \nframe=  441 fps=6.2 q=60.0 size=    1024KiB time=00:00:03.67 bitrate=2282.6kbits/s speed=0.052x elapsed=0:01:10.72    \nframe=  445 fps=6.2 q=60.0 size=    1024KiB time=00:00:03.70 bitrate=2262.1kbits/s speed=0.052x elapsed=0:01:11.24    \nframe=  448 fps=6.2 q=60.0 size=    1024KiB time=00:00:03.73 bitrate=2246.9kbits/s speed=0.052x elapsed=0:01:11.75    \nframe=  451 fps=6.2 q=61.0 size=    1024KiB time=00:00:03.75 bitrate=2232.0kbits/s speed=0.052x elapsed=0:01:12.27    \nframe=  454 fps=6.2 q=60.0 size=    1024KiB time=00:00:03.78 bitrate=2217.3kbits/s speed=0.052x elapsed=0:01:12.78    \nframe=  456 fps=6.2 q=60.0 size=    1024KiB time=00:00:03.80 bitrate=2207.5kbits/s speed=0.0518x elapsed=0:01:13.30    \nframe=  459 fps=6.2 q=58.0 size=    1024KiB time=00:00:03.82 bitrate=2193.1kbits/s speed=0.0518x elapsed=0:01:13.82    \nframe=  462 fps=6.2 q=61.0 size=    1024KiB time=00:00:03.85 bitrate=2178.9kbits/s speed=0.0518x elapsed=0:01:14.33    \nframe=  466 fps=6.2 q=61.0 size=    1024KiB time=00:00:03.88 bitrate=2160.2kbits/s speed=0.0519x elapsed=0:01:14.86    \nframe=  470 fps=6.2 q=62.0 size=    1024KiB time=00:00:03.91 bitrate=2141.8kbits/s speed=0.052x elapsed=0:01:15.37    \nframe=  471 fps=6.2 q=59.0 size=    1024KiB time=00:00:03.92 bitrate=2137.2kbits/s speed=0.0517x elapsed=0:01:15.90    \nframe=  475 fps=6.2 q=61.0 size=    1024KiB time=00:00:03.95 bitrate=2119.2kbits/s speed=0.0518x elapsed=0:01:16.41    \nframe=  479 fps=6.2 q=62.0 size=    1024KiB time=00:00:03.99 bitrate=2101.5kbits/s speed=0.0519x elapsed=0:01:16.92    \nframe=  482 fps=6.2 q=59.0 size=    1024KiB time=00:00:04.01 bitrate=2088.4kbits/s speed=0.0519x elapsed=0:01:17.44    \nframe=  486 fps=6.2 q=57.0 size=    1024KiB time=00:00:04.05 bitrate=2071.3kbits/s speed=0.052x elapsed=0:01:17.95    \nframe=  488 fps=6.2 q=63.0 size=    1024KiB time=00:00:04.06 bitrate=2062.8kbits/s speed=0.0518x elapsed=0:01:18.47    \nframe=  492 fps=6.2 q=63.0 size=    1024KiB time=00:00:04.10 bitrate=2046.0kbits/s speed=0.0519x elapsed=0:01:18.98    \nframe=  496 fps=6.2 q=63.0 size=    1024KiB time=00:00:04.13 bitrate=2029.5kbits/s speed=0.052x elapsed=0:01:19.51    \nframe=  499 fps=6.2 q=57.0 size=    1024KiB time=00:00:04.15 bitrate=2017.3kbits/s speed=0.052x elapsed=0:01:20.02    \nframe=  503 fps=6.2 q=62.0 size=    1024KiB time=00:00:04.19 bitrate=2001.3kbits/s speed=0.052x elapsed=0:01:20.53    \nframe=  506 fps=6.2 q=58.0 size=    1024KiB time=00:00:04.21 bitrate=1989.4kbits/s speed=0.052x elapsed=0:01:21.06    \nframe=  510 fps=6.3 q=57.0 size=    1024KiB time=00:00:04.25 bitrate=1973.8kbits/s speed=0.0521x elapsed=0:01:21.58    \nframe=  512 fps=6.2 q=56.0 size=    1024KiB time=00:00:04.26 bitrate=1966.1kbits/s speed=0.052x elapsed=0:01:22.09    \nframe=  517 fps=6.3 q=59.0 size=    1536KiB time=00:00:04.30 bitrate=2920.6kbits/s speed=0.0521x elapsed=0:01:22.62    \nframe=  520 fps=6.3 q=63.0 size=    1536KiB time=00:00:04.33 bitrate=2903.7kbits/s speed=0.0521x elapsed=0:01:23.14    \nframe=  524 fps=6.3 q=63.0 size=    1536KiB time=00:00:04.36 bitrate=2881.6kbits/s speed=0.0522x elapsed=0:01:23.65    \nframe=  527 fps=6.3 q=56.0 size=    1536KiB time=00:00:04.39 bitrate=2865.2kbits/s speed=0.0522x elapsed=0:01:24.16    \nframe=  531 fps=6.3 q=62.0 size=    1536KiB time=00:00:04.42 bitrate=2843.6kbits/s speed=0.0523x elapsed=0:01:24.68    \nframe=  535 fps=6.3 q=63.0 size=    1536KiB time=00:00:04.45 bitrate=2822.3kbits/s speed=0.0523x elapsed=0:01:25.20    \nframe=  539 fps=6.3 q=63.0 size=    1536KiB time=00:00:04.49 bitrate=2801.4kbits/s speed=0.0524x elapsed=0:01:25.71    \nframe=  542 fps=6.3 q=55.0 size=    1536KiB time=00:00:04.51 bitrate=2785.9kbits/s speed=0.0524x elapsed=0:01:26.22    \nframe=  545 fps=6.3 q=54.0 size=    1536KiB time=00:00:04.54 bitrate=2770.5kbits/s speed=0.0524x elapsed=0:01:26.74    \nframe=  548 fps=6.3 q=63.0 size=    1536KiB time=00:00:04.56 bitrate=2755.4kbits/s speed=0.0523x elapsed=0:01:27.25    \nframe=  552 fps=6.3 q=63.0 size=    1536KiB time=00:00:04.60 bitrate=2735.4kbits/s speed=0.0524x elapsed=0:01:27.77    \nframe=  555 fps=6.3 q=54.0 size=    1536KiB time=00:00:04.62 bitrate=2720.6kbits/s speed=0.0524x elapsed=0:01:28.28    \nframe=  557 fps=6.3 q=54.0 size=    1536KiB time=00:00:04.64 bitrate=2710.9kbits/s speed=0.0523x elapsed=0:01:28.80    \nframe=  561 fps=6.3 q=63.0 size=    1536KiB time=00:00:04.67 bitrate=2691.5kbits/s speed=0.0523x elapsed=0:01:29.31    \nframe=  565 fps=6.3 q=63.0 size=    1536KiB time=00:00:04.70 bitrate=2672.5kbits/s speed=0.0524x elapsed=0:01:29.83    \nframe=  569 fps=6.3 q=63.0 size=    1536KiB time=00:00:04.74 bitrate=2653.7kbits/s speed=0.0525x elapsed=0:01:30.36    \nframe=  572 fps=6.3 q=54.0 size=    1536KiB time=00:00:04.76 bitrate=2639.8kbits/s speed=0.0524x elapsed=0:01:30.89    \nframe=  574 fps=6.3 q=63.0 size=    1536KiB time=00:00:04.78 bitrate=2630.6kbits/s speed=0.0523x elapsed=0:01:31.39    \nframe=  576 fps=6.3 q=63.0 size=    1536KiB time=00:00:04.80 bitrate=2621.4kbits/s speed=0.0522x elapsed=0:01:31.92    \nframe=  576 fps=6.2 q=63.0 size=    1536KiB time=00:00:04.80 bitrate=2621.4kbits/s speed=0.0519x elapsed=0:01:32.42    \nframe=  576 fps=6.2 q=63.0 size=    1536KiB time=00:00:04.80 bitrate=2621.4kbits/s speed=0.0516x elapsed=0:01:32.95    \nframe=  576 fps=6.2 q=63.0 size=    1536KiB time=00:00:04.80 bitrate=2621.4kbits/s speed=0.0514x elapsed=0:01:33.46    \nframe=  576 fps=6.1 q=63.0 size=    1536KiB time=00:00:04.80 bitrate=2621.4kbits/s speed=0.0511x elapsed=0:01:33.97    \nframe=  576 fps=6.1 q=63.0 size=    1536KiB time=00:00:04.80 bitrate=2621.4kbits/s speed=0.0508x elapsed=0:01:34.49    \nframe=  576 fps=6.1 q=63.0 size=    1536KiB time=00:00:04.80 bitrate=2621.4kbits/s speed=0.0505x elapsed=0:01:35.00    \n[out#0/webm @ 00000258ace18e00] video:2064KiB audio:0KiB subtitle:0KiB other streams:0KiB global headers:0KiB muxing overhead: 0.229474%\nframe=  600 fps=6.3 q=54.0 Lsize=    2069KiB time=00:00:05.00 bitrate=3389.4kbits/s speed=0.0524x elapsed=0:01:35.35    \n",
  "seconds": 95.493337392807,
  "probe_out": {}
}